<svg width="640" height="512" viewBox="0 0 640 512" fill="none" xmlns="http://www.w3.org/2000/svg">
<g clip-path="url(#clip0_36_3815)">
<path d="M351.2 4.79992C354.4 2.79992 357.8 1.49992 361.2 0.699919C365.9 -0.300081 370.8 -0.200081 375.3 0.799919C383 2.59992 390.1 7.29992 394.7 14.3999L514.6 194.2C523.4 207.3 528 222.8 528 238.6V312.1C528 319 532.4 325.1 538.9 327.3L618.1 353.7C631.2 358 640 370.2 640 384V480C640 489.9 635.4 499.3 627.5 505.4C619.6 511.5 609.4 513.5 599.8 510.9L431 465.9C375 451 336 400.2 336 342.2V224C336 206.3 350.3 192 368 192C385.7 192 400 206.3 400 224V304C400 312.8 407.2 320 416 320C424.8 320 432 312.8 432 304V219.1C432 212.1 430.2 205.3 426.7 199.3L340.3 48.0999C338.6 45.0999 337.4 41.9999 336.7 38.7999C335.7 34.0999 335.7 29.1999 336.8 24.6999C338.7 16.6999 343.6 9.49992 351.1 4.79992H351.2ZM288.8 4.79992C296.3 9.39992 301.2 16.6999 303.1 24.6999C304.2 29.2999 304.3 34.0999 303.2 38.7999C302.5 41.9999 301.3 45.0999 299.6 48.0999L213.3 199.3C209.8 205.3 208 212.2 208 219.1V304C208 312.8 215.2 320 224 320C232.8 320 240 312.8 240 304V224C240 206.3 254.3 192 272 192C289.7 192 304 206.3 304 224V342.3C304 400.3 265 451 209 466L40.3 511C30.7 513.6 20.4 511.5 12.6 505.5C4.8 499.5 0 490 0 480V384C0 370.2 8.8 358 21.9 353.6L101.1 327.2C107.6 325 112 318.9 112 312V238.5C112 222.7 116.7 207.3 125.4 194.1L245.2 14.4999C249.8 7.39992 256.9 2.69992 264.6 0.899919C269.2 -0.200081 274 -0.300081 278.7 0.799919C282.2 1.59992 285.6 2.89992 288.7 4.89992L288.8 4.79992Z" fill="#7C0000"/>
</g>
<defs>
<clipPath id="clip0_36_3815">
<rect width="640" height="512" fill="white"/>
</clipPath>
</defs>
</svg>
