<svg width="256" height="256" viewBox="0 0 256 256" fill="none" xmlns="http://www.w3.org/2000/svg">
<path d="M188 86.11V84C188 69.38 177.17 56.45 157.49 47.6C140.87 40.12 119 36 96 36C73 36 51.13 40.12 34.51 47.6C14.83 56.45 4 69.38 4 84V124C4 138.62 14.83 151.55 34.51 160.4C45.2048 165.028 56.4664 168.216 68 169.88V172C68 186.62 78.83 199.55 98.51 208.4C115.13 215.88 137 220 160 220C183 220 204.87 215.88 221.49 208.4C241.17 199.55 252 186.62 252 172V132C252 109.86 226.71 92.08 188 86.11ZM228 132C228 139.75 206.23 154.48 166.19 155.88C180.33 147.4 188 136.3 188 124V110.44C213.88 115.15 228 125.48 228 132ZM107.37 147.63C103.74 147.87 99.95 148 96 148C90.92 148 86.11 147.78 81.57 147.39C81.1918 147.34 80.8113 147.31 80.43 147.3C78.92 147.16 77.43 147 76 146.82V130.93C82.6428 131.644 89.319 132.001 96 132C102.681 132.001 109.357 131.644 116 130.93V146.82C113.51 147.12 110.93 147.38 108.25 147.57C108 147.58 107.66 147.6 107.37 147.63ZM164 117.14V124C164 128.78 155.72 136.21 140 141.54V126.54C145.985 124.971 151.834 122.921 157.49 120.41C159.783 119.377 161.953 118.287 164 117.14ZM96 60C140 60 164 75.85 164 84C164 92.15 140 108 96 108C52 108 28 92.15 28 84C28 75.85 52 60 96 60ZM28 124V117.14C30.0533 118.28 32.2233 119.367 34.51 120.4C40.1656 122.911 46.0146 124.961 52 126.53V141.53C36.28 136.21 28 128.78 28 124ZM92 172H96C99.6267 172 103.217 171.893 106.77 171.68C109.737 172.727 112.813 173.68 116 174.54V189.54C100.28 184.21 92 176.78 92 172ZM140 194.82V178.94C146.643 179.65 153.319 180.004 160 180C166.681 180.001 173.357 179.644 180 178.93V194.82C166.713 196.394 153.287 196.394 140 194.82ZM204 189.54V174.54C209.985 172.971 215.834 170.921 221.49 168.41C223.783 167.383 225.953 166.297 228 165.15V172C228 176.78 219.72 184.21 204 189.54Z" fill="#7C0000"/>
</svg>
