<svg width="614" height="608" viewBox="0 0 614 608" fill="none" xmlns="http://www.w3.org/2000/svg">
<path d="M127.969 177.496C135.304 181.797 141.275 188.553 147.192 194.559C148.146 195.519 149.1 196.479 150.055 197.438C152.547 199.943 155.033 202.453 157.518 204.965C161.494 208.986 165.478 212.999 169.465 217.009C170.841 218.395 172.213 219.784 173.585 221.174C174.862 222.461 174.862 222.461 176.165 223.773C176.902 224.518 177.638 225.263 178.397 226.031C180.453 228.001 182.535 229.865 184.691 231.721C189.407 235.819 193.816 240.195 198.231 244.613C199.12 245.498 200.008 246.383 200.924 247.296C203.337 249.7 205.747 252.107 208.156 254.516C209.662 256.021 211.169 257.526 212.677 259.031C217.938 264.283 223.196 269.537 228.452 274.794C233.351 279.693 238.256 284.587 243.163 289.478C247.383 293.686 251.599 297.897 255.813 302.111C258.326 304.625 260.842 307.137 263.361 309.646C266.16 312.434 268.952 315.23 271.743 318.027C272.581 318.859 273.419 319.692 274.283 320.55C275.414 321.688 275.414 321.688 276.568 322.848C277.229 323.508 277.89 324.168 278.57 324.848C279.969 326.496 279.969 326.496 279.969 328.496C280.805 328.867 280.805 328.867 281.657 329.246C283.969 330.496 283.969 330.496 286.219 332.434C294.09 338.337 302.428 338.275 311.969 337.496C321.956 335.079 328.316 330.635 335.317 323.191C337.258 321.219 339.138 319.486 341.242 317.716C347.189 312.536 352.682 306.894 358.238 301.303C360.288 299.239 362.342 297.179 364.396 295.12C368.757 290.748 373.113 286.373 377.469 281.996C382.522 276.92 387.576 271.845 392.634 266.775C394.646 264.757 396.654 262.736 398.663 260.715C408.772 250.565 408.772 250.565 412.979 246.989C418.681 242.14 423.849 236.709 429.114 231.396C431.138 229.354 433.166 227.316 435.195 225.279C440.957 219.492 446.714 213.7 452.467 207.903C455.999 204.344 459.536 200.789 463.076 197.238C464.419 195.89 465.759 194.54 467.097 193.187C468.968 191.297 470.845 189.413 472.724 187.531C473.542 186.699 473.542 186.699 474.377 185.851C482.09 178.157 482.09 178.157 487.129 177C494.607 177.23 498.4 180.667 503.782 185.559C505.245 186.875 505.245 186.875 506.739 188.219C508.969 190.496 508.969 190.496 508.969 192.496C509.532 192.733 510.094 192.97 510.673 193.214C513.496 194.79 515.427 196.712 517.708 199.004C518.611 199.909 519.513 200.814 520.444 201.746C520.911 202.219 521.378 202.692 521.859 203.18C523.262 204.601 524.673 206.013 526.084 207.426C530.705 212.076 535.207 216.764 539.423 221.787C541.149 223.695 543.006 225.335 544.969 226.996C547.732 229.334 550.132 231.733 552.469 234.496C555.432 237.993 558.641 240.946 562.125 243.914C566.408 247.588 570.06 251.701 573.637 256.043C574.927 257.624 574.927 257.624 576.969 258.496C576.969 259.156 576.969 259.816 576.969 260.496C577.629 260.496 578.289 260.496 578.969 260.496C580.136 261.903 581.298 263.314 582.44 264.741C584.034 266.57 585.713 268.074 587.567 269.637C592.357 273.773 596.82 278.199 601.282 282.684C602.079 283.477 602.876 284.27 603.698 285.088C604.847 286.239 604.847 286.239 606.02 287.414C606.707 288.103 607.395 288.791 608.103 289.501C611.693 293.339 613.465 295.768 613.719 301.121C613.497 306.048 612.761 308.418 609.341 311.969C608.521 312.831 607.7 313.692 606.855 314.579C605.894 315.553 604.932 316.525 603.969 317.496C602.885 318.602 601.802 319.709 600.718 320.815C596.925 324.667 593.096 328.482 589.266 332.297C587.856 333.705 586.446 335.114 585.036 336.523C581.351 340.204 577.663 343.882 573.975 347.559C570.221 351.303 566.47 355.049 562.719 358.795C556.666 364.84 550.61 370.883 544.553 376.924C543.754 377.72 543.754 377.72 542.94 378.532C542.484 378.987 542.028 379.441 541.559 379.909C536.408 385.051 531.267 390.203 526.125 395.353C524.273 397.209 522.421 399.064 520.568 400.919C520.079 401.409 519.59 401.899 519.086 402.404C496.559 424.967 474.026 447.524 451.49 470.077C448.236 473.334 444.981 476.591 441.727 479.848C441.079 480.496 440.431 481.145 439.764 481.813C429.257 492.329 418.753 502.848 408.251 513.369C397.466 524.172 386.678 534.972 375.886 545.768C369.23 552.427 362.577 559.088 355.927 565.754C351.373 570.319 346.815 574.88 342.254 579.438C339.622 582.069 336.992 584.701 334.366 587.338C331.52 590.195 328.667 593.044 325.813 595.893C324.568 597.147 324.568 597.147 323.297 598.426C322.531 599.189 321.765 599.951 320.975 600.736C320.318 601.395 319.66 602.053 318.982 602.731C314.632 606.545 311.155 608.184 305.416 607.876C297.817 606.696 291.979 599.931 286.821 594.715C285.651 593.55 285.651 593.55 284.458 592.362C281.859 589.77 279.271 587.169 276.683 584.566C274.817 582.701 272.951 580.837 271.083 578.973C266.548 574.443 262.02 569.905 257.495 565.364C252.222 560.074 246.941 554.791 241.66 549.509C232.237 540.085 222.821 530.653 213.409 521.217C204.28 512.065 195.147 502.917 186.008 493.775C185.445 493.212 184.882 492.649 184.302 492.068C183.167 490.933 182.033 489.798 180.898 488.663C180.059 487.823 180.059 487.823 179.202 486.966C178.644 486.408 178.085 485.849 177.51 485.274C168.794 476.554 160.081 467.83 151.369 459.105C148.214 455.946 145.059 452.787 141.903 449.628C136.898 444.619 131.895 439.608 126.895 434.594C124.611 432.303 122.326 430.014 120.04 427.726C117.561 425.245 115.085 422.762 112.61 420.277C111.887 419.556 111.165 418.834 110.421 418.091C107.047 414.697 103.897 411.293 100.969 407.496C99.325 405.807 97.6554 404.143 95.9693 402.496C94.8013 401.331 93.6347 400.164 92.4693 398.996C91.6494 398.176 91.6494 398.176 90.813 397.34C90.2046 396.731 89.5961 396.123 88.9693 395.496C88.192 394.72 87.4147 393.944 86.6138 393.145C84.7829 391.311 82.9573 389.473 81.1372 387.629C74.617 381.019 74.617 381.019 67.7193 374.809C64.0524 371.697 60.992 368.196 57.8482 364.566C55.4162 361.887 52.7935 359.755 49.9693 357.496C48.2928 355.839 46.6274 354.171 44.9693 352.496C44.0862 351.636 43.2032 350.776 42.2935 349.891C41.4234 349.039 40.5532 348.186 39.6568 347.309C38.7737 346.449 37.8907 345.589 36.981 344.703C34.9693 342.496 34.9693 342.496 34.9693 340.496C33.9793 340.166 32.9893 339.836 31.9693 339.496C30.7708 338.361 29.5792 337.216 28.4365 336.025C26.7983 334.318 25.1125 332.667 23.4185 331.016C22.1645 329.78 20.9106 328.544 19.6568 327.309C19.0116 326.68 18.3664 326.052 17.7017 325.404C16.7881 324.5 16.7881 324.5 15.856 323.578C15.0239 322.762 15.0239 322.762 14.1751 321.929C12.9693 320.496 12.9693 320.496 12.9693 318.496C12.3969 318.245 11.8246 317.993 11.2349 317.734C6.74289 315.279 3.61453 311.849 0.969258 307.496C-0.484951 302.021 -0.518875 297.066 2.3716 292.074C4.22136 289.95 6.16533 288.022 8.24221 286.121C10.3928 284.098 12.4444 281.99 14.5044 279.875C21.0498 273.186 21.0498 273.186 24.1529 270.082C24.8392 269.392 25.5255 268.701 26.2327 267.99C27.9693 266.496 27.9693 266.496 29.9693 266.496C30.2305 265.904 30.4917 265.313 30.7608 264.703C32.0428 262.362 33.3399 260.976 35.3045 259.182C36.3178 258.246 36.3178 258.246 37.3515 257.291C38.0821 256.624 38.8126 255.958 39.5652 255.271C47.6606 247.77 55.5188 240.068 63.2989 232.242C65.5036 230.024 67.7117 227.809 69.9206 225.596C74.5855 220.92 79.2464 216.239 83.9068 211.559C89.3664 206.075 94.8276 200.594 100.293 195.116C102.468 192.935 104.639 190.751 106.811 188.567C108.13 187.244 109.45 185.921 110.77 184.598C111.372 183.991 111.974 183.384 112.594 182.758C117.637 177.714 120.878 176.289 127.969 177.496Z" fill="#BAC2D4"/>
<path d="M510.566 267.558C518.858 273.411 525.381 281.602 527.859 291.593C529.448 301.933 527.989 309.319 522.25 318.136C518.81 322.679 514.989 326.517 510.669 330.215C505.978 334.311 501.598 338.679 497.219 343.105C496.383 343.944 495.548 344.783 494.687 345.647C492.039 348.308 489.394 350.971 486.75 353.636C483.263 357.149 479.773 360.659 476.281 364.167C475.495 364.962 474.708 365.757 473.897 366.576C473.143 367.334 472.389 368.091 471.611 368.872C470.96 369.528 470.309 370.184 469.639 370.861C467.728 372.68 465.791 374.389 463.786 376.099C457.671 381.421 452.032 387.239 446.32 392.984C445.028 394.279 443.736 395.574 442.444 396.869C439.675 399.645 436.908 402.421 434.142 405.2C429.766 409.594 425.385 413.984 421.004 418.373C408.55 430.851 396.103 443.334 383.66 455.822C376.777 462.729 369.891 469.632 363.002 476.532C358.647 480.893 354.297 485.258 349.95 489.627C347.246 492.344 344.537 495.056 341.827 497.766C340.573 499.022 339.321 500.28 338.071 501.54C336.362 503.261 334.646 504.977 332.929 506.691C332.193 507.436 332.193 507.436 331.442 508.197C324.243 515.345 317.338 518.369 307.271 518.458C306.46 518.455 305.649 518.452 304.812 518.448C303.601 518.472 303.601 518.472 302.365 518.497C301.165 518.498 301.165 518.498 299.941 518.499C299.232 518.502 298.522 518.505 297.791 518.508C289.32 517.267 284.661 513.267 278.843 507.35C278.035 506.549 277.227 505.747 276.395 504.922C273.697 502.239 271.017 499.539 268.337 496.838C266.406 494.907 264.47 492.98 262.535 491.053C257.831 486.363 253.139 481.659 248.452 476.951C242.99 471.465 237.515 465.992 232.039 460.519C222.267 450.75 212.507 440.969 202.754 431.181C193.297 421.692 183.831 412.212 174.355 402.742C164.029 392.423 153.708 382.099 143.395 371.766C142.849 371.219 142.303 370.672 141.74 370.109C140.644 369.01 139.548 367.912 138.452 366.814C134.643 362.998 130.831 359.185 127.018 355.374C122.368 350.725 117.723 346.071 113.086 341.41C110.721 339.033 108.354 336.66 105.981 334.292C103.406 331.72 100.84 329.14 98.2763 326.557C97.5298 325.815 96.7833 325.074 96.0142 324.311C88.6936 316.894 84.1535 310.626 84 300.011C84.1237 288.955 87.4013 280.151 95.1719 272.159C104.466 263.694 112.597 261.542 124.98 261.804C139.99 262.6 150.79 277.522 160.648 287.518C161.176 288.052 161.705 288.586 162.25 289.136C162.98 289.876 163.71 290.617 164.462 291.38C166.836 293.726 169.258 295.999 171.721 298.251C182.899 308.504 193.522 319.324 204.209 330.081C207.85 333.746 211.497 337.405 215.144 341.063C225.501 351.454 235.854 361.849 246.197 372.254C251.937 378.028 257.682 383.797 263.433 389.56C267.058 393.193 270.676 396.832 274.289 400.476C276.533 402.736 278.783 404.99 281.035 407.242C282.075 408.285 283.113 409.33 284.148 410.378C285.563 411.811 286.989 413.233 288.415 414.655C289.209 415.453 290.002 416.25 290.82 417.072C295.33 420.902 299.355 422.557 305.25 422.511C306.24 422.519 307.23 422.526 308.25 422.534C321.326 420.798 332.417 405.098 341.325 396.142C342.716 394.748 344.106 393.355 345.497 391.961C348.474 388.978 351.448 385.994 354.422 383.009C359.126 378.286 363.834 373.568 368.543 368.851C381.927 355.444 395.304 342.03 408.678 328.612C416.078 321.187 423.482 313.766 430.889 306.349C435.57 301.662 440.246 296.97 444.919 292.275C447.825 289.358 450.734 286.445 453.645 283.533C454.993 282.183 456.338 280.832 457.682 279.479C459.518 277.63 461.361 275.788 463.205 273.947C463.997 273.145 463.997 273.145 464.806 272.327C478.421 258.803 494.367 257.614 510.566 267.558Z" fill="#262D44"/>
<path d="M311.531 0.458412C314.76 2.52953 317.347 5.1089 320.031 7.83341C320.758 8.53208 321.485 9.23075 322.234 9.9506C326.015 13.6463 326.015 13.6463 327.531 15.4584C327.531 16.1184 327.531 16.7784 327.531 17.4584C328.521 17.7884 329.511 18.1184 330.531 18.4584C330.531 19.1184 330.531 19.7784 330.531 20.4584C332.511 21.4484 332.511 21.4484 334.531 22.4584C334.531 23.1184 334.531 23.7784 334.531 24.4584C335.521 24.7884 336.511 25.1184 337.531 25.4584C337.531 26.1184 337.531 26.7784 337.531 27.4584C338.521 27.7884 339.511 28.1184 340.531 28.4584C342.219 29.8959 342.219 29.8959 343.531 31.4584C343.531 32.1184 343.531 32.7784 343.531 33.4584C344.521 33.7884 345.511 34.1184 346.531 34.4584C348.08 36.0258 348.08 36.0258 349.729 38.0226C353.418 42.368 357.336 46.4079 361.371 50.4311C362.097 51.1578 362.823 51.8846 363.57 52.6333C365.094 54.158 366.62 55.6815 368.146 57.2038C370.463 59.5148 372.774 61.831 375.084 64.1479C376.575 65.6384 378.067 67.1287 379.559 68.6186C380.239 69.3011 380.92 69.9835 381.621 70.6867C385.538 74.5854 389.556 78.3076 393.75 81.9079C396.453 84.2607 398.988 86.7458 401.531 89.2709C402.02 89.7472 402.508 90.2235 403.012 90.7143C404.225 91.9229 405.384 93.1866 406.531 94.4584C406.531 95.1184 406.531 95.7784 406.531 96.4584C407.088 96.6853 407.645 96.9122 408.219 97.1459C411.184 98.8288 413.185 100.995 415.531 103.458C416.294 104.18 417.058 104.902 417.844 105.646C419.531 107.458 419.531 107.458 419.531 109.458C420.392 109.801 420.392 109.801 421.27 110.15C424.135 111.808 425.683 113.794 427.719 116.396C428.414 117.271 429.108 118.146 429.824 119.048C432.727 123.147 432.949 126.526 432.531 131.458C423.604 146.372 408.788 158.366 396.557 170.6C394.93 172.228 393.303 173.856 391.677 175.485C385.995 181.176 380.311 186.865 374.624 192.551C369.333 197.841 364.049 203.136 358.767 208.434C354.213 213.001 349.655 217.564 345.094 222.124C342.378 224.84 339.663 227.558 336.952 230.279C334.411 232.83 331.866 235.376 329.316 237.918C327.937 239.295 326.563 240.678 325.189 242.06C324.367 242.879 323.544 243.697 322.697 244.54C321.629 245.609 321.629 245.609 320.539 246.7C315.449 251.158 310.58 250.945 304.012 250.829C297.308 250.115 293.65 246.919 289.428 241.895C285.063 236.843 280.357 232.167 275.62 227.466C274.64 226.489 273.661 225.513 272.681 224.536C270.587 222.448 268.491 220.362 266.394 218.276C263.075 214.976 259.76 211.67 256.446 208.364C247.027 198.97 237.602 189.581 228.173 180.196C222.954 175.001 217.738 169.803 212.526 164.601C209.236 161.317 205.941 158.037 202.642 154.761C200.59 152.721 198.542 150.676 196.496 148.631C195.1 147.238 193.699 145.85 192.297 144.462C182.272 134.421 182.272 134.421 181 129.333C181.158 119.851 188.121 114.662 194.531 108.458C195.439 107.551 196.346 106.643 197.281 105.708C198.024 104.966 198.766 104.223 199.531 103.458C200.645 102.283 200.645 102.283 201.781 101.083C211.771 91.5479 211.771 91.5479 217.219 91.2709C223.309 93.4541 227.606 97.2826 232.121 101.818C232.629 102.326 233.136 102.834 233.659 103.357C234.726 104.427 235.791 105.5 236.853 106.575C238.456 108.195 240.066 109.808 241.678 111.419C242.722 112.468 243.765 113.518 244.809 114.568C245.514 115.274 245.514 115.274 246.233 115.995C248.896 118.695 251.434 121.47 253.917 124.338C259.524 130.797 265.588 136.816 271.609 142.886C273.099 144.393 274.583 145.905 276.062 147.422C278.223 149.638 280.401 151.837 282.582 154.033C283.23 154.704 283.879 155.374 284.546 156.066C289.962 161.457 296.632 166.433 304.508 167.017C318.793 166.543 327.672 163.806 337.844 153.271C344.702 145.035 347.407 136.458 346.938 125.779C345.126 110.974 332.821 101.598 322.762 91.6451C321.006 89.9059 319.253 88.1629 317.5 86.4189C312.526 81.4685 307.546 76.524 302.561 71.5839C299.492 68.5422 296.429 65.4955 293.368 62.4459C292.211 61.295 291.052 60.1461 289.891 58.9992C273.284 42.5904 273.284 42.5904 271.992 33.7826C272.047 29.9179 273.223 28.1657 275.82 25.3529C277.246 23.9713 278.692 22.611 280.156 21.2709C280.869 20.5858 281.582 19.9006 282.316 19.1947C285.43 16.227 288.6 13.3622 291.926 10.6342C294.609 8.54663 294.609 8.54664 296.594 5.83341C300.59 0.93483 305.257 -0.959772 311.531 0.458412Z" fill="#C2CBDC"/>
</svg>
