<svg width="448" height="385" viewBox="0 0 448 385" fill="none" xmlns="http://www.w3.org/2000/svg">
<path d="M161.69 88.84C163.123 85.9714 165.385 83.5996 168.183 82.0324C170.981 80.4651 174.185 79.7747 177.379 80.0506C180.574 80.3266 183.613 81.5561 186.1 83.5799C188.588 85.6036 190.41 88.3281 191.33 91.4L227.73 212.76L257.73 152.84C259.059 150.183 261.101 147.948 263.629 146.386C266.156 144.824 269.069 143.997 272.04 143.997C275.011 143.997 277.923 144.824 280.451 146.386C282.978 147.948 285.021 150.183 286.35 152.84L313.89 208H410.65C425.055 178.299 432.364 145.658 432 112.65C431.37 50.54 381.54 0 320.92 0C272.83 0 240.92 29.54 224 51C207.12 29.51 175.17 0 127.08 0C66.4598 0 16.6298 50.54 15.9998 112.65C15.7407 134.098 18.752 155.46 24.9298 176H118.11L161.69 88.84Z" fill="#7C0000"/>
<path d="M289.69 231.16L272 195.78L238.31 263.16C236.981 265.817 234.938 268.051 232.41 269.612C229.883 271.173 226.971 272 224 272C223.553 272 223.093 271.98 222.62 271.94C219.418 271.674 216.369 270.45 213.872 268.428C211.375 266.405 209.545 263.677 208.62 260.6L172.22 139.24L142.22 199.16C140.897 201.803 138.869 204.028 136.359 205.589C133.849 207.149 130.955 207.984 128 208H37.35C46.6833 227.527 59.1067 246.747 74.62 265.66C93.39 288.54 127.42 325.12 206.01 378.47C211.31 382.102 217.585 384.046 224.01 384.046C230.435 384.046 236.71 382.102 242.01 378.47C320.6 325.12 354.63 288.54 373.4 265.66C380.16 257.431 386.502 248.867 392.4 240H304C301.029 240 298.117 239.173 295.59 237.612C293.062 236.051 291.019 233.817 289.69 231.16ZM432 208H410.65C405.331 219.085 399.232 229.778 392.4 240H432C436.243 240 440.313 238.314 443.314 235.314C446.314 232.313 448 228.243 448 224C448 219.757 446.314 215.687 443.314 212.686C440.313 209.686 436.243 208 432 208ZM16 176C11.7565 176 7.68687 177.686 4.68629 180.686C1.68571 183.687 0 187.757 0 192C0 196.243 1.68571 200.313 4.68629 203.314C7.68687 206.314 11.7565 208 16 208H37.35C32.4012 197.665 28.2491 186.967 24.93 176H16Z" fill="#7C0000"/>
</svg>
