<svg width="256" height="256" viewBox="0 0 256 256" fill="none" xmlns="http://www.w3.org/2000/svg">
<path d="M205.41 159.07C195.819 164.9 184.804 167.966 173.58 167.93C164.177 167.856 154.881 165.933 146.22 162.27C139.545 171.693 135.973 182.962 136 194.51V224C136.002 225.097 135.779 226.182 135.344 227.189C134.91 228.196 134.273 229.103 133.473 229.853C132.673 230.603 131.727 231.181 130.694 231.55C129.662 231.92 128.564 232.073 127.47 232C125.414 231.821 123.501 230.871 122.116 229.341C120.73 227.811 119.974 225.814 120 223.75V211.31L81.3799 172.69C75.6389 174.832 69.5672 175.952 63.4399 176C55.0044 176.022 46.7268 173.714 39.5199 169.33C17.7299 156.09 5.99988 125.62 8.26988 87.79C8.38418 85.8329 9.21315 83.9859 10.5994 82.5996C11.9857 81.2133 13.8327 80.3843 15.7899 80.27C53.6199 78.04 84.0899 89.73 97.2899 111.52C102.476 120.061 104.74 130.058 103.74 140C103.678 140.77 103.394 141.506 102.922 142.118C102.451 142.731 101.812 143.193 101.083 143.45C100.354 143.707 99.5668 143.748 98.8156 143.567C98.0643 143.386 97.3815 142.991 96.8499 142.43L77.6499 122.33C76.1374 120.893 74.1234 120.104 72.0373 120.131C69.9512 120.157 67.9581 120.998 66.4829 122.473C65.0076 123.948 64.1671 125.941 64.1404 128.027C64.1137 130.114 64.9029 132.128 66.3399 133.64L120.22 188.89C120.28 188.11 120.35 187.33 120.43 186.56C122.179 171.728 128.724 157.872 139.07 147.1L189.66 93.64C191.161 92.1402 192.005 90.1056 192.006 87.9836C192.007 85.8616 191.165 83.8262 189.665 82.325C188.165 80.8239 186.13 79.9801 184.008 79.9791C181.886 79.9782 179.851 80.8202 178.35 82.32L129.35 134.14C128.859 134.66 128.239 135.038 127.552 135.237C126.866 135.435 126.139 135.446 125.447 135.269C124.755 135.091 124.123 134.731 123.617 134.227C123.111 133.722 122.75 133.092 122.57 132.4C117.83 114.92 119.92 97.52 128.97 82.58C146.83 53.1 188.39 37.32 240.15 40.36C242.107 40.4743 243.954 41.3033 245.34 42.6896C246.727 44.0759 247.556 45.9229 247.67 47.88C250.67 99.65 234.89 141.21 205.41 159.07Z" fill="#7C0000"/>
</svg>
